<svg version="1.1" viewBox="0 0 1225 411" xml:space="preserve" xmlns="http://www.w3.org/2000/svg"><style type="text/css">.st1{fill:#bac9cf}.st2{fill:#f2872e}.st3{fill:#eb4224}.st4{fill:#ffc754}.st5{fill:#3dabc2}.st6{fill:#474d57}.st7{fill:#4a4296}</style><g opacity=".6"><path class="st1" d="M27.64 292.72l13.99-8.5c2.51-1.47 6.02-2.14 9.62-1.84 1.14.11 2.17.32 3.15.65l15.07 5.34c4.8 1.57 9.92 2.38 15.21 2.42l26.05-.58c5.04-.06 9.48.17 13.65.71l46.8 8.4c2.23.39 4.7.59 7.77.62h.09c3.02 0 5.47-.17 7.77-.54l21.21-3.72c2.16-.37 4.57-.56 7.56-.62 3.02-.04 5.43.08 7.68.38l16.48 2.37c1.08.16 2.27.24 3.64.27 4.45.04 8.25-.4 11.79-1.37l32.86-9.87c3.12-.91 6.41-1.44 9.79-1.56.99-.02 1.78 0 2.58.1l13.19 1.35 23.74 1.81c4.92.5 9.8 1.84 14.16 3.92l36.19 19.46c1.49.97 3.41 1.1 4.92 1.11 2.11-.02 4.28-.39 6.37-1.11l55.62-20.12c1.81-.7 4.07-1.01 6.54-.91 2.45.12 4.64.63 6.39 1.5 4.31 2.19 8.98 4.08 13.96 5.62l58.56 16.97 14.34 4.98 128.21 52.45.1.04c3.19 1.24 7.01 1.85 11.33 1.79 1.34-.03 2.51-.14 3.68-.36 0 0 22.28-4.92 27.13-6.78l94.36-38.18 45.84-15.82c4.57-1.47 8.98-2.53 13.14-3.16l13.9-1.14 38.41-1.9c4.72-.11 9.67 1.09 13.63 3.3l28.58 17.91c4.03 2.35 9.1 3.77 14.25 4l52.09.03 15.8-.5 2.69-.17c4.92-.21 9.95.53 14.63 2.15l18.56 7.24c2.03.79 4.41 1.23 7.29 1.33 2.85.08 5.27-.19 7.5-.85l21.33-6.94 14.38-4.88 24.96-8.81c1.86-.67 4.1-.93 6.63-.78 2.52.16 4.68.68 6.47 1.57l8.51 4.54c4.29 2.2 9.04 3.98 14.11 5.29l23.94 5.53v-1.27l-23.57-5.44h-.01c-4.96-1.27-9.61-3.01-13.87-5.21l-8.52-4.54c-1.91-.95-4.25-1.52-6.97-1.69-2.73-.15-5.16.14-7.28.89l-24.74 8.74-14.56 4.94-21.31 6.93c-1.95.58-4.29.84-6.94.76-2.67-.09-4.96-.51-6.8-1.22l-18.58-7.25-.1-.04c-4.8-1.65-10.04-2.41-15.22-2.2l-2.49.16-15.84.5-52.05-.03c-4.92-.21-9.74-1.56-13.63-3.84l-28.51-17.86-.09-.05c-4.2-2.33-9.28-3.55-14.43-3.45l-38.34 1.89-13.98 1.15-.11.01c-4.26.64-8.62 1.69-13.41 3.23l-45.91 15.85L724.24 366c-4.69 1.8-26.87 6.69-26.87 6.69-.99.18-2.09.29-3.36.32-4.1.05-7.76-.52-10.84-1.72l-128.23-52.46-14.43-5.01-58.68-17.01c-4.82-1.49-9.41-3.34-13.73-5.54-1.89-.94-4.2-1.48-6.9-1.61-2.71-.11-5.1.22-7.2 1.03l-55.59 20.11c-1.87.64-3.88.99-5.83 1-1.89 0-3.24-.29-4.13-.88l-36.41-19.58c-4.45-2.12-9.5-3.51-14.69-4.03l-23.74-1.82-13.15-1.35c-.79-.09-1.65-.13-2.71-.1-3.5.13-6.92.68-10.24 1.65l-32.85 9.87c-3.26.89-7.05 1.33-11.28 1.29-1.3-.02-2.43-.11-3.54-.27l-16.49-2.37c-2.25-.3-4.74-.42-7.81-.38-3.08.06-5.56.26-7.87.66l-21.21 3.72c-2.16.35-4.55.52-7.53.51-2.98-.02-5.37-.21-7.6-.61l-46.74-8.39-.1-.01c-4.18-.55-8.7-.78-13.89-.71l-25.93.58c-5.06-.04-10.16-.85-14.82-2.37l-15.06-5.34c-1.01-.34-2.16-.58-3.41-.69-.62-.05-1.23-.08-1.83-.08-3.26 0-6.29.73-8.72 2.15l-13.98 8.49c-4.09 2.33-8.77 4.19-13.6 5.42l-13.93 3.22v1.28l14.35-3.31c4.97-1.3 9.64-3.17 13.97-5.63z"/><path class="st1" d="M1216 343.83c-4.91-1.34-9.45-3.2-13.56-5.55l-8.03-4.78c-1.81-1.02-4.15-1.63-6.75-1.79-2.61-.14-5.03.23-7.07 1.08l-24.03 10.05-14 5.63-20.52 7.92-.11.03c-1.88.68-4.16.99-6.72.95-2.6-.07-4.83-.49-6.71-1.29l-17.66-7.55-.1-.04c-3.21-1.26-7.04-2.03-11.37-2.29-1.34-.07-2.54-.05-3.73.06l-80.65 7.07c-4.7.2-9.54-1.1-12.91-3.42l-26.53-19.75-.09-.06c-3.86-2.55-8.93-3.95-13.93-3.84l-49.13 2.73c-5.26.39-10.42 1.25-15.43 2.57l-188.98 53.07c-2.01.52-4.31.71-7.03.59-2.72-.15-4.97-.58-6.94-1.35l-211.73-84.02c-2.04-.76-4.46-1.09-7.17-.99-2.71.12-5.07.65-7.06 1.62l-60.96 30.04c-1.69.79-3.87 1.17-6.16 1.08-2.29-.1-4.4-.68-6.01-1.67l-31.8-19.4c-4.28-2.42-9-4.18-14.13-5.24l-38.33-7.03c-1.09-.19-2.27-.3-3.62-.35-.45-.01-7-.31-11.58 1.32l-31.32 10c-3.28.97-6.98 1.53-11.31 1.7-1.3.04-21.73-1.42-23.14-1.38-4.49.16-8.33.69-11.83 1.65l-23.12 6.68c-3.33.89-7.05 1.36-11.38 1.44-1.29.02-93.72-7.53-93.72-7.53-5-.49-9.91-1.79-14.27-3.78l-16.66-8.17c-1.92-.9-4.32-1.35-6.89-1.3-2.59.06-4.94.62-6.86 1.65 0 0-21.22 10.71-25.32 11.65l-.35.08v1.27l.55-.11c4.25-.97 25.76-11.8 25.76-11.8l.1-.05c1.65-.89 3.78-1.39 6.14-1.44 2.38-.05 4.54.36 6.32 1.19l16.66 8.17c4.5 2.05 9.44 3.35 14.66 3.87 0 0 92.54 7.55 93.89 7.54 4.46-.09 8.3-.58 11.84-1.52l23.12-6.69c3.3-.9 7.03-1.41 11.4-1.57 1.33-.03 21.78 1.42 23.14 1.37 4.45-.18 8.27-.76 11.76-1.79l31.22-9.96c3.19-.95 6.93-1.38 11.13-1.27 1.29.05 2.41.16 3.5.35l38.31 7.03c4.81 1 9.52 2.75 13.67 5.09l31.79 19.4c2.23 1.36 4.83 1.75 6.62 1.83 2.55.1 4.91-.31 6.92-1.25l60.97-30.05c1.74-.85 3.9-1.34 6.42-1.44 2.52-.09 4.75.21 6.67.93L673.49 385l.1.04c2.04.79 4.43 1.26 7.31 1.42 2.88.13 5.32-.07 7.57-.66l188.99-53.09c4.83-1.27 9.9-2.12 15.14-2.51l49-2.72c4.6-.12 9.52 1.23 13.12 3.63l26.42 19.66.08.06c3.74 2.57 8.8 3.93 13.86 3.72l80.78-7.08c1.04-.09 2.17-.11 3.44-.05 4.17.25 7.84.98 10.88 2.18l17.83 7.62c1.97.84 4.38 1.3 7.17 1.38 2.75.04 5.2-.3 7.23-1.03l20.75-8 14.03-5.64 24.03-10.05c1.77-.74 3.97-1.07 6.36-.95 2.39.14 4.51.7 6.19 1.64l7.92 4.73s7.95 4.66 13.93 5.71l10.21 2.5.01-1.28-9.82-2.4h-.02z"/><path class="st1" d="M1226 214.38v-1.25l-303.36-36.65.07-.61c.37-3.62-3.18-7.09-7.84-7.58l-5.62-.69 4.37-14.86c.11-.43.17-.88.17-1.31.05-1.21-.43-2.39-1.38-3.42-1.35-1.46-3.46-2.38-5.7-2.46l-8.5-.65h-.01l6.6-15.35c.34-.86.45-1.75.3-2.54-.35-2.61-3.59-4.21-6.38-4.21h-.07l-11.15-.39 8.65-16.02c.44-.85.62-1.69.55-2.47-.09-1.24-.91-2.4-2.12-3.02-1.04-.58-2.39-.88-4.1-.88l-125.6.4h-.11c-5.06.25-9.91 2.02-13.38 4.93l-43.53 39.58a7.405 7.405 0 0 0-2.34 5.13c-.07 1.96.63 3.82 2.04 5.29l10.45 11.01c-.28.96-.39 1.9-.32 2.8.13 1.45.68 2.81 1.65 4l10.45 12.88-.01.08c-.03.23-.07.46-.07.69-.01 1.47.4 2.88 1.22 4.14l11 16.81.02.05c.09.29.18.58.34.92l12.89 27.23-143.01-72.39c-1.91-.92-4.26-1.35-6.8-1.25-1.78.08-4.37.45-6.66 1.86l-72.98 44.89c-.88.51-1.85.98-2.72.93-.26-.02-1.15-.03-.84-1.52.07-.33 7.92-28.25 7.92-28.25.23-.86.37-1.79.43-2.86.14-3.48-.39-6.47-1.66-9.23l-30.62-62.05c-1.94-3.46-6.46-5.86-11.35-5.98l-47.39-.05c-2.54.01-5.04.96-6.71 2.65-1.18 1.2-1.81 2.65-1.77 4.14l-.01 12.27v.01h-.14c-4.52-.16-8.8 2.81-9.07 6.46l-1.22 12.65c-4.04.35-7.5 2.86-8.14 6.01l-1.25 5.75-51.02 8.64c-.99.16-2.08.21-3.25.16-3.79-.21-7.23-1.23-9.73-2.9l-24.63-17.47c-3.6-2.71-6.7-5.98-8.99-9.5l-53.22-88.1c-.7-1.13-1.97-2.51-4.05-2.63h-.03c-2.04 0-3.43 1.28-4.28 2.42l-44.18 60.5-15.58 18.07-8.49 10.33-6.48 7.13s-23.15 24.88-25.24 27.13l-26.4 27.96-.11.11-8.7 8.15L-.5 151.4v1.35l116.31 48.18-14.37 12.3h-.01L30.1 188.24-.52 175.42v1.37l30.2 12.63 70.61 24.74-.01.01h.01L85.64 226.1l-70.11-19.77c-4.85-1.44-16.08-6.16-16.08-6.16v1.39s10.77 4.49 15.65 5.94l69.35 19.56.06.02-15.33 11.52-69.77-14.64v1.28l68.38 14.31c-3.8 2.75-7.35 5.73-10.61 8.93l-4.01 2.48c-.03 0-53.78-6.96-53.78-6.96v1.25l52 6.77s-8.47 5.73-11.83 8.79l-2.18 2.05c-.88.11-1.69.21-2.58.19l-35.44-1.61v1.24l35.45 1.61s.67-.01.98-.04l-2.04 1.01c-4.38 2.28-8.39 4.95-11.98 7.98l-1.71 1.51c-1.13.24-20.71 1.28-20.71 1.28l-.01 1.24s18.56-.89 18.94-.95l-2.9 2.55c-4.27 1.95-12.5 7.71-12.5 7.71-.96.29-3.56.85-3.56.85v1.27s1.01-.2 1.25-.25l-1.25 1.04v1.66l4.28-3.48c3.45-1.09 6.63-2.75 9.19-4.79l3.51-3.08s.75-.35 1.02-.47l29.23-11.71c4.57-1.92 8.88-4.3 12.87-7.1l14.08-10.4c3.47-2.37 8.36-3.71 13.1-3.59l12.41.82.12.01c5.19.24 10.42-.14 15.53-1.13l24.07-5.3c2.01-.44 4.27-.66 6.74-.63 1.69.04 3.87.15 5.87.78l12.42 4.52 30.51 11.47.12.05c4.72 1.67 9.78 2.79 15.13 3.35 0 0 28.44 2.76 33.49 4.02l17.95 4.82c2.18.57 4.59.85 7.59.88 2.99 0 5.41-.26 7.56-.79l36.19-9.66.1-.03c4.63-1.16 8.92-1.72 12.77-1.64l.1.01c4.02.14 8.25-.26 13.3-1.26l16.49-3.59c1-.22 2.1-.36 3.34-.43 4.03-.18 7.8.27 10.97 1.33 0 0 37.46 14.5 40.03 16.45 1.49 1.24 3.5 1.8 5.47 2.21 2.04.4 4.06.57 5.99.49l47.35-2.33h.11c3.4 0 7.1 1.43 9.97 3.88 3.16 2.76 7.69 4.65 12.75 5.32l60.18 5.18c4.9.5 9.91 1.72 14.55 3.55l135.2 58.41c4.5 1.82 9.67 2.79 14.95 2.81l12.97-.47c4.93-.3 9.82-2.1 13.4-4.92l.1-.08c18.09-16.34 36.19-32.68 54.33-49.06 3.32-2.89 52.12-25.1 56.23-26.29 3.94-.98 55.37-3.48 55.37-3.48 4.89-.09 9.86.79 14.48 2.57l33.04 14.43c4.49 1.92 46.29 14.68 46.29 14.68l.11.03c4.83 1.34 18.72 2.02 18.72 2.02 4.92-.02 10.07.69 14.97 2.08l20.27 6.54c2.11.68 4.49 1.08 7.5 1.26 2.93.14 5.43.01 7.65-.41l64.9-14.63c1.01-.24 2.12-.4 3.29-.47 3.95-.2 7.65.31 10.74 1.47l9.62 4.07c4.51 1.85 9.42 3.39 14.67 4.58l44.07 9.03c1.09.23 7.27.49 7.27.49v-1.24s-5.94-.25-7.07-.48l-44.06-9.02c-5.08-1.15-9.91-2.66-14.31-4.47l-9.65-4.08-.1-.04c-3.26-1.22-7.05-1.74-11.28-1.54-1.26.08-2.46.25-3.63.52l-64.76 14.59c-2.1.4-4.49.52-7.3.38-2.89-.17-5.16-.55-7.22-1.22l-20.2-6.52-.1-.03c-4.94-1.4-9.98-2.12-15.09-2.12-.11 0-13.91-.67-18.62-1.98 0 0-41.76-12.75-46.24-14.67l-32.97-14.4-.1-.04a40.533 40.533 0 0 0-14.98-2.64s-51.68 2.52-55.7 3.52l-.1.03c-4.15 1.2-53.27 23.59-56.75 26.61l-54.31 49.04c-3.37 2.67-7.96 4.35-12.68 4.63l-12.83.47c-5.08-.02-10.06-.95-14.46-2.73L566.2 287.7a56.968 56.968 0 0 0-14.98-3.63l-60.06-5.17c-4.72-.62-9.09-2.44-11.98-4.98l-.08-.07c-1.85-1.56-5.71-4.16-10.88-4.16h-.1l-47.35 2.32c-1.82.08-3.73-.08-5.66-.46-1.7-.36-3.6-.87-4.84-1.91l-.1-.08c-2.64-2-40.45-16.64-40.45-16.64-3.31-1.11-7.16-1.57-11.45-1.38-1.32.07-2.49.22-3.66.48l-16.37 3.57c-4.88.96-9.12 1.37-12.96 1.23h-.1c-4.03-.07-8.36.48-13.29 1.71l-36.05 9.63-.1.02c-2.05.51-4.42.75-7.24.75-2.83-.02-5.19-.29-7.31-.85l-17.86-4.79-.1-.03c-5.05-1.26-33.74-4.06-33.74-4.06-5.14-.53-10.07-1.63-14.66-3.25l-30.63-11.51-12.45-4.53-.1-.03c-2.12-.66-4.34-.79-6.23-.83-2.6-.02-4.92.19-7.15.68l-23.94 5.28c-4.94.96-10.19 1.34-15.26 1.1l-12.44-.83h-.11c-5.02-.1-10.12 1.29-13.97 3.9l-14.09 10.4c-3.83 2.69-8.05 5.01-12.6 6.93l-26.68 10.68 1.49-1.32c3.73-.85 7.05-2.45 9.62-4.62l6.47-6.1 3.08-1.52c3.2-.76 5.95-2.12 7.97-3.93l15.17-7.49c4.34-2.23 8.44-4.82 12.24-7.77l14.13-11.4c3.47-2.59 8.04-4.35 12.93-4.97 0 0 22.24-2.6 27.25-4.14l23.22-7.65.1-.03c1.9-.62 4.05-.95 6.37-.97 2.3 0 4.09.29 5.53.88l11.86 5.62L206 236.04l.09.04c4.45 2.07 46.75 12.91 46.75 12.91l18.76 6.16c2.1.68 4.55 1.06 7.48 1.18 2.93.09 5.41-.11 7.68-.63l37.83-9.53c4.76-1.13 9.02-1.69 13.11-1.72 4.05-.05 8.27-.95 12.99-2.8l13.83-5.92c1.82-.78 4.08-1.24 6.72-1.39 2.64-.13 4.97.08 7 .66l31.78 9.82c4.46 1.46 7.8 3.13 10.26 5.16 2.49 2.06 6.03 3.41 11.13 4.23l31.6 3.97 12.43 2.12c2.94.88 5.7 2.81 8.23 5.79 2.5 3.01 7.11 4.99 12.04 5.16h.1l61.19-.68c4.9.05 9.88 1.01 14.48 2.82l138.63 61.37c4.55 1.89 9.55 3.05 14.87 3.44l13.46.53c4.81.12 9.55-1.94 12.04-5.24l4.66-7.14c1.63-1 2.78-2.36 3.23-3.78l.62-2.12 2.21-3.39c1.24-.21 2.32-.65 3.13-1.29a5.05 5.05 0 0 0 1.97-3.99l-.03-2.5 1.92-2.95c.87.17 1.62.23 2.32.18 1.13-.06 2.24-.49 2.98-1.17.86-.83 1.07-1.83 1.09-2.53.01-.42-1.04-4.7-1.04-4.7l2.09-3.21 1.72.55c.73.23 1.71.49 2.75.5.92.07 1.9-.26 2.55-.86.45-.42.69-.94.68-1.4.11-.92-.21-1.77-.49-2.4l-2.04-4.32 2.43-3.73 3.9 1.5c.78.29 1.63.57 2.61.68.52.04 1.3.05 1.94-.34.56-.35.86-.98.78-1.67-.07-.82-.46-1.55-.83-2.12l-3.35-5.13c1.3-1.41 2.81-2.73 4.49-3.93l4.18 1.86.21.09c.93.39 1.9.8 3.11.81.59 0 1.33-.36 1.45-.99.15-1.03-.42-1.8-.92-2.48l-2.16-2.67 9.51-4.74c.47.19 1.03.39 1.65.47.35.09.82-.04 1.11-.31a.8.8 0 0 0 .28-.69c-.04-.32-.15-.59-.28-.84 0 0 25.35-12.31 29.43-13.77 3.84-1.21 8.36-1.97 13.41-2.25l43.51-1.42c4.9-.07 10.01.69 14.81 2.21l35.43 12.71c4.57 1.69 9.07 3.74 13.43 6.13l23.5 13.43.11.06c4.18 2.24 9.18 3.55 14.43 3.77h.1s13.66.75 18.7 2.06l21.05 6.15.12.04c3.35.95 7.16 1.37 11.69 1.29 1.36-.04 2.55-.13 3.58-.29 0 0 69.25-11.94 70.48-11.97 4.13-.09 7.81.4 11.04 1.48l10.24 3.84c4.63 1.69 60.14 12.92 60.14 12.92l.11.02c2.21.43 4.66.61 7.72.54 3.01-.08 11.97-1.94 11.97-1.94v-1.28s-9.14 1.9-12 1.98c-2.96.06-5.31-.11-7.5-.54 0 0-55.38-11.21-60.01-12.89l-10.17-3.81-.1-.03c-3.33-1.11-7.18-1.64-11.48-1.54-1.29.04-70.6 11.96-70.6 11.96-1.03.15-2.16.25-3.45.28-4.37.08-8.04-.33-11.22-1.23l-21.3-6.22c-5.08-1.32-19.06-2.09-19.06-2.09-4.98-.21-9.88-1.49-13.86-3.64l-23.51-13.43-.1-.05c-4.37-2.39-8.94-4.48-13.65-6.22l-35.36-12.69-.1-.03a48.171 48.171 0 0 0-15.32-2.26l-43.43 1.42c-5.27.3-9.79 1.06-13.81 2.32l-.1.03c-4.09 1.47-23.91 11.02-29.6 13.86l-.01-.01c-.06-.07-.41-.47-.51-.6l-14.43-15.21 32.53-17.27c3.76-1.45 8.24-2.33 13.4-2.62l45.07-1.25c4.93-.06 10.13.58 14.97 1.82l38.05 11.02c4.27 1.35 8.17 3.58 11.3 6.46l.42.95c.92 1.97 2.75 3.72 5.16 4.94l11.44 12.26c3 3.01 7.79 5.02 12.79 5.37l4.08.08c5.02.15 10.12.83 15.21 2.04l22.09 5.82c3.4.86 7.26 1.3 11.79 1.32 1.37 0 75.13-8.98 76.38-8.99 4.2.02 7.98.52 11.28 1.5 3.61 1.19 20.69 6.41 25.96 7.44l46.57 8.43.1.02c2.21.4 4.67.59 7.76.61 3.05-.01 24.32-3.65 24.32-3.65v-1.26s-21.36 3.67-24.33 3.68c-3.01-.01-5.4-.2-7.59-.6l-46.67-8.45c-5.15-1.01-25.78-7.41-25.78-7.41-3.43-1.02-7.23-1.52-11.64-1.54-1.32.01-75.05 8.98-76.37 8.99-4.42-.03-8.16-.44-11.51-1.3l-22-5.79-.1-.03c-5.12-1.21-10.32-1.91-15.44-2.07l-3.92-.07-.1-.01c-4.61-.31-9.17-2.22-11.93-5.02l-9.49-10.19-.11-.12c.94.27 7.28.69 7.28.69 5.02.24 10.15.91 15.31 2.02l22.92 5.41.1.03c3.43.78 7.31 1.22 11.87 1.35 1.4.03 77.45-5.74 78.75-5.72 4.33.12 23.12 4.87 23.12 4.87 4.82 1.36 63.17 11.63 63.17 11.63 2.23.38 4.63.58 7.8.67 3.07.06 36.7-3.91 36.7-3.91l.01-1.25s-33.68 3.99-36.68 3.93c-3.04-.08-5.45-.29-7.67-.67 0 0-58.18-10.25-63.01-11.61 0 0-18.95-4.77-23.4-4.9-1.35-.02-77.42 5.74-78.74 5.72-4.46-.12-8.24-.55-11.65-1.33l-23.04-5.44a95.945 95.945 0 0 0-15.58-2.04s-7.64-.75-9.19-1.5l-5.03-5.39c-.07-.07-2.52-5.28-3.63-7.79 4.95.33 9.99.99 15.05 1.98l23.99 5.05c5 .97 10.25 1.44 15.56 1.42l73.9-2.49c5.01-.11 10.11.4 15.2 1.53l27.57 6.21s54.14 8.47 57.23 8.62c3.07.13 5.57.13 7.95-.01l41.15-2.84v-1.27l-41.21 2.87-.11.01c-2.23.13-4.67.13-7.7 0-3.09-.15-57.01-8.59-57.01-8.59l-27.5-6.2-.11-.03c-5.14-1.13-10.34-1.66-15.48-1.54l-73.9 2.49c-5.24.05-10.37-.43-15.34-1.41l-23.99-5.05c-5.16-1-15.82-2.02-15.82-2.02s-5.85-13.18-5.89-13.24c0 0 2.26.32 3.35.51l24.97 4.65c5.03.88 10.28 1.4 15.58 1.54l76.31.62c5.07.09 10.21.64 15.36 1.64l13.09 2.81s76.5 11.42 81.89 11.41c0 0 49.45-.55 53.02-.14l.5.06v-1.25l-.4-.05c-3.6-.42-53.22.14-53.22.14h-.13c-5.21 0-81.34-11.38-81.34-11.38l-13.07-2.8-.12-.03c-5.17-1-10.4-1.55-15.65-1.65l-76.2-.61c-5.24-.14-10.41-.66-15.45-1.54l-24.97-4.65c-1.18-.21-4.56-.7-4.56-.7-1.67-2.21-4.03-3.99-6.87-5.17l-.91-7.89 19.94 3.25c5.06.79 10.3 1.35 15.68 1.67 0 0 88.93 4.6 94.13 5.47l14.01 2.54 83.06 11.05 66.07 3.93v-1.26l-65.96-3.9-82.98-11.06-13.91-2.52-.1-.02c-5.2-.87-94.21-5.47-94.21-5.47l-.1-.01c-5.25-.32-10.45-.87-15.42-1.65l-20.34-3.32-.77-6.69c-.47-2.6-2.41-4.94-5.14-6.41l8.81 1.25 127.08 12.71 163.05 18.42v-1.25l-162.82-18.38-127.22-12.74-14.91-2.04 1.5-12.58 303.5 36.67zM7.4 284.77a52.94 52.94 0 0 1 4.34-2.68c-1.26.99-2.73 1.89-4.34 2.68zm22.04-14.41c-1.74 1.48-4 2.73-6.5 3.59 2.94-2.45 6.21-4.69 9.79-6.68l-3.29 3.09zm877.15-123.58l.11.01c3.15.12 5.84 2.28 5.76 4.62 0 .36-.05.7-.14 1.08l-4.4 14.95-18.46-2.25 8.22-19.09 8.91.68zM782.77 251.33c-2.76 1.75-5 3.95-6.54 6.4l-.02-.03v.01l-9.51-14.54 16.08 8.14-.02.01.01.01zm-7.34 11.68s.73-2.27.93-2.68l2.94 4.51-3.87-1.83zm-367.11-99.77l-1.19 5.49c-.64 2.56-3.19 5.6-7.38 6.27l4.14-11.04 4.43-.72zm-3.86-.62c.82-1.58 2.57-2.89 4.79-3.59l-.64 2.91-4.15.68zm-4.47 13.61c4.76-.76 7.67-4.17 8.43-7.17l1.32-6.04 2.68-.44c2.46-.43 4.61-1.68 6.1-3.53l35.32 3.91h.04c4.45.6 8.07 2.22 9.96 4.46 1.97 2.78 4.31 5.57 7.44 8.85l28.82 29.57c2.75 3.05 4.46 6.8 4.81 10.6l.53 15.35c.06 1.31.5 2.38 1.3 3.17.84.9 2.3 1.47 3.82 1.47.93.02 1.97-.17 2.97-.52l67.65-25.12c1.86-.69 4.11-.99 6.66-.9 2.55.11 4.75.57 6.59 1.41l152.34 73.3c4.45 2.08 9.16 3.95 14.09 5.6l3.84 1.22.05 4.05-2.33 8.15-10.16-2.56c-4.94-1.34-9.66-3.03-14.12-5.06L589.3 225.72l-.09-.04c-3.11-1.33-6.94-1.89-11.05-1.61-1.3.1-2.44.3-3.47.6l-65.74 18.77-.1.02c-.9.24-1.82.34-2.69.27-2.43-.12-4.54-1.79-4.81-3.88l-2.55-12.18-.03-.11c-1.18-3.64-3.66-7.08-7.25-10l-29.29-22.39c-3.56-2.82-6.16-5.31-8.19-7.83l-.07-.08c-2.27-2.42-5.92-4.1-10.94-5.01l-38.14-5.85a14.6 14.6 0 0 0-1.69-.12c-1.39.01-2.8.27-4.2.75l.25-.68.71-.11.03-.01zm10.02-14.53l.66-3.03.1-.02c.41-.09 2.18-.2 2.73-.15l3.42.38c-1.26 1.29-4.82 2.48-4.82 2.48l-2.09.34zM764.8 300.09l.06 4.15-1.16-.29 1.1-3.86zm-.03-59.86l-10.28-15.71c.03-2 .73-3.98 1.98-5.63l12.66 15.6.02.02c-1.98 1.66-3.43 3.61-4.25 5.71l-.13.01zm-.48 18.9l.05 3.91-1.17-4.47 1.12.56zm-1.55-2.18l-2.97-11.32 4.46 9.42.03 2.66-1.52-.76zm1.35-12.98l.1 7.92-6.21-13.13 6.36 3.22.05.08-.01.06c-.13.57-.27 1.15-.29 1.85zm117.22-61.68c.03.53.21 1.06.52 1.6l-2.05-.35c-5.22-.8-10.46-1.18-15.73-1.15l-48.32.91h-.11c-5.17.28-9.91 1.49-13.71 3.5l-38.65 25.33L748.89 197l41.1-29.52c3.51-2.12 8.12-3.42 13.06-3.68 0 0 56.74-.61 60.8-.3l-.11.21c-.45.84-.68 1.68-.66 2.48-.08 2.45 2.49 4.7 5.69 5.01l15.85 1.92h.01l-2.85 6.61c-.41.9-.56 1.76-.47 2.56zm-118.26 31.5l14.51 15.29s-7.35 4.54-7.41 4.59l-12.78-15.75c.37-.39.79-.81 1.31-1.19l4.37-2.94zM869.06 170l-.11-.02c-2.56-.26-4.6-1.95-4.55-3.79-.01-.62.76-2.38.87-2.57.35.03 22.32 2.58 22.32 2.58l-2.47 5.74-16.06-1.94zm-3.16-7.56l9.73-18.02 20.66 1.58-8.19 19.01-.01.02s-21.98-2.57-22.19-2.59zm8.94-19.33l-16.97-1.3-15.8-.52-51.77.55-.11.01c-5.13.28-9.97 1.8-13.63 4.29l-.08.06c-3.66 2.79-32.65 25.45-43.52 34.01l-13.44-14.17c.38-.98.96-1.83 1.78-2.56l43.44-36.71c3.32-2.55 7.98-4.16 12.84-4.41l53.41-.36 15.77.22 38.64 1.35-10.56 19.54zm-97.47 4.02c3.4-2.32 8.09-3.79 12.95-4.04l51.73-.55 15.72.51 16.42 1.26-9.72 18c-4.04-.32-61.46.26-61.46.26l-.1.01c-5.17.28-9.9 1.62-13.67 3.88l-41.23 29.61-14.17-14.93 43.53-34.01zm-15.23 65.73l.01.01-4.34 2.91c-.48.35-.87.74-1.26 1.15l-.01-.01-12.49-15.39c.57-1.01 1.28-1.87 2.13-2.54 0 0 1.13-.82 1.66-1.21l14.3 15.08zm7.82 22.65l10.89 13.42-14.93-7.56c.66-2.14 2.08-4.19 4.04-5.86zm.99-.85c.06-.05 7.5-4.63 7.5-4.63l14.72 15.52-9.06 5.03-.01-.01-.41-.21-12.74-15.7zm-6.8-21.59l38.45-25.21c3.56-1.88 8.21-3.06 13.16-3.33l48.41-.91c5.09-.03 10.25.35 15.37 1.13l3.49.6a7.515 7.515 0 0 0 4.32 1.91l5.96.63 8.3 1.02-2.04 6.93c-.1.35-.21.82-.23 1.28-.11 1.21.32 2.46 1.21 3.53 1.26 1.5 3.3 2.5 5.41 2.67l12 1.31h.01l-.7 5.86-26.44-6.02-.09-.02a75.1 75.1 0 0 0-15.63-1.51l-46.66 1.08h-.1c-5.22.29-9.85 1.33-13.76 3.1L778.7 228.4l-14.55-15.33zm141.98-10.96c-1.8-.15-3.49-.97-4.52-2.19-.7-.83-1.03-1.76-.94-2.7.01-.3.07-.61.2-1.1l2.06-7.01 16.58 2.56-1.41 11.74-11.97-1.3zm-4.09-14.74l-18.37-3.15c-.64-.67-1-1.35-1.04-2.03-.07-.62.06-1.29.38-2.05l2.95-6.85 19.53 2.36-3.45 11.72zm-15.56-15.27l2.47-5.73 18.62 2.27-1.71 5.8-19.38-2.34zm12.03-48.07h.12c2.6 0 4.91 1.41 5.15 3.17.11.6.03 1.26-.25 1.97l-6.73 15.62v.01l-20.53-1.57 10.59-19.61 11.65.41zm-189.92 30.48l-.07-.05a5.964 5.964 0 0 1-1.66-4.37c.06-1.64.76-3.17 2.01-4.36l43.51-39.56c3.12-2.62 7.78-4.32 12.53-4.54l125.59-.4h.11c1.55-.07 3.13.41 4.03 1.24.48.44.73.95.75 1.52.05.57-.09 1.19-.45 1.89l-8.88 16.46-39.34-1.37-15.81-.22-53.33.36h-.11c-5.08.28-10.02 1.99-13.65 4.76l-43.48 36.74c-.76.68-1.36 1.48-1.8 2.38l-9.95-10.48zm21.54 29.83l-.06-.07v.01l-9.65-11.88-.05-.06a6.02 6.02 0 0 1-1.34-3.3c-.04-.48-.01-.99.09-1.54l12.93 13.62c-.88.95-1.54 2.04-1.92 3.22zm1.08 1.34c.22-1.34.83-2.57 1.74-3.6l14.01 14.76-1.63 1.19c-.83.66-1.53 1.46-2.14 2.42l-11.98-14.77zm11.72 20.16c-.04-1.02.13-2.06.49-3.05l12.24 15.08a10.777 10.777 0 0 0-2.28 4.93l-10.2-15.56c-.15-.52-.23-.98-.25-1.4zm3.9 9.37l6.31 9.64c-.01.05-.01.1-.01.16.03.4.1.83.21 1.33l1.55 5.89-8.06-17.02zm8.28 12.65c2.63 4.01 5.25 8.02 7.87 12.02l-5.44-2.75-2.43-9.27zM432.35 106.73c-.01-1.1.49-2.24 1.44-3.21 1.41-1.43 3.51-2.26 5.8-2.25l47.38.06c4.26.09 8.41 2.27 10.11 5.35l30.6 62.02c1.14 2.47 1.65 5.37 1.52 8.6-.06.98-.19 1.84-.41 2.68 0 0-7.91 28.03-7.95 28.39-.03.49-.03 1.07.21 1.62.26.67 1.03 1.19 1.85 1.23 1.47.07 2.61-.59 3.62-1.16l73-44.91c1.53-.95 3.63-1.52 5.91-1.62 2.27-.09 4.44.31 6.18 1.14l144.45 73.12.61 1.3 4.47 17.06-154.64-77.04-.1-.05c-1.91-.9-4.26-1.34-6.89-1.31-2.61.05-4.95.61-6.86 1.63l-71.17 38.17c-.76.39-1.9.88-2.98.75-1-.12-1.35-1.03-1.34-1.78 0-.35.04-.7.11-1.06l4.67-23.19c.17-.86.24-1.8.22-2.88-.14-3.48-.93-6.43-2.45-9.1l-32.93-54.77-.06-.09c-1.89-2.71-5.9-4.5-10.74-4.78l-43.64-1.52.01-12.4zm0 13.65l43.54 1.51h.03c4.28.23 8.07 1.88 9.68 4.23l32.98 54.84c1.37 2.39 2.13 5.24 2.25 8.47.02.98-.04 1.84-.21 2.68l-4.67 23.22c-.06.33-.12.76-.11 1.2-.03 1.28.73 2.77 2.49 3.01 1.44.16 2.73-.36 3.9-.94l71.18-38.17c1.64-.88 3.77-1.38 6.15-1.43 2.35-.04 4.53.37 6.31 1.2l155.71 77.57 2.82 10.76.07 5.86-8.03-3.5-155.77-76.3c-1.95-.9-4.29-1.37-6.98-1.4-2.7 0-5.06.43-7.08 1.35l-69.35 31.55c-.83.37-1.61.57-2.33.61-.99.08-1.92-.28-2.36-.89-.42-.57-.59-1.31-.5-2.29l1.89-19.25c.19-4.09-1.01-8.12-3.52-11.74l-34.59-46.44-.06-.08c-2.01-2.6-5.95-4.36-10.9-4.84l-32.57-2.31.03-18.48zm-9.21 5.28l.01-.08c.21-2.91 3.89-5.42 7.76-5.26h.1l-.03 18.46s-8.96-.63-9.05-.63l1.21-12.49zm-1.32 13.73c.1 0 9.16.62 9.16.62v1.05c-.08 3.09-3.23 6.06-7.24 6.78l-2.78.47h-.01l.87-8.92zm-1.02 10.21l3.24-.55c4.58-.83 8.13-4.25 8.25-8.03v-.9l32.51 2.31.08.01c4.4.41 8.07 2.02 9.85 4.34l34.65 46.54c2.28 3.27 3.43 7.15 3.25 10.95l-1.66 16.61-.22 2.64c-.1 1.2.15 2.22.73 3.02.67.96 2.14 1.54 3.54 1.42.9-.05 1.82-.28 2.91-.76l69.35-31.56c1.73-.79 3.9-1.21 6.4-1.19 2.44.03 4.65.46 6.46 1.3L755.8 272l8.69 3.79.18 14.31-3.46-1.1c-4.8-1.59-9.46-3.45-13.92-5.54l-152.35-73.3c-1.95-.89-4.33-1.39-7.07-1.51-2.74-.09-5.18.24-7.3 1.01l-67.43 25.05s-1.79.49-2.6.48c-1.16-.01-2.22-.4-2.84-1.07-1.25-1.18-1.02-4.07-1.02-4.07-.14-4.05-.28-8.11-.42-12.23l-.05-1.42-.01-.11c-.39-4.08-2.16-7.97-5.19-11.34l-28.83-29.58c-2.99-3.14-5.36-5.97-7.26-8.65l-.07-.09c-2.72-3.19-7.39-4.43-10.83-4.91l-34.72-3.84h-.02a7.9 7.9 0 0 0 1-2.86l.52-5.42zm-7.03-5.21c.5-2.46 3.38-4.56 6.7-4.93l-.87 9.09-6.98 1.18 1.15-5.34zm-1.44 6.65l7.15-1.21-.47 4.93-.02.13c-.11.96-.51 1.94-1.12 2.85 0 0-5.8-.52-5.98-.51-.33.02-.63.08-.93.14l1.37-6.33zM253.15 41.23c.51-.69 1.59-1.83 3.08-1.83h.04c1.52.07 2.49 1.29 2.97 2.06l53.16 88.02.05.09c2.38 3.64 5.5 6.94 9.35 9.84l24.66 17.48c3.4 2.27 7.53 2.94 10.39 3.1 1.28.06 2.47 0 3.64-.19l50.41-8.53-1.39 6.38c-3.18.8-5.69 2.71-6.6 5.1l-.04.1-53.25 9.45c-.98.17-2.08.23-3.26.2-3.82-.16-7.31-1.11-9.9-2.72l-23.82-15.69c-3.74-2.61-7.08-5.76-9.69-9.15l-56.01-79.02c-.51-.73-1.97-2.42-4.44-2.5h-.1c-2.4 0-3.99 1.57-4.62 2.31l-18.71 22.12 34.08-46.62zm-44.26 60.6l29.94-35.31.07-.08c.46-.54 1.71-1.78 3.51-1.78h.08c1.27.04 2.53.77 3.4 2.01l56.02 79.05c2.69 3.5 6.04 6.66 9.92 9.37l23.86 15.72.09.06c3.5 2.17 7.67 2.78 10.55 2.9 1.31.04 2.47-.03 3.55-.22l52.51-9.32-4.14 11.03-59.14 10.79c-.99.18-2.08.25-3.27.24-3.85-.1-7.4-.99-10.08-2.52l-22.99-13.96c-3.96-2.53-7.47-5.45-10.49-8.72l-58.89-70.28c-1.11-1.37-2.94-2.19-4.74-2.19-1.83.02-3.65.81-4.99 2.16l-21.83 22.06-3.39 3.35 10.45-14.36zm186.57 80.81c-.81 1.93-2.4 3.61-4.39 4.72l3.33-5.61s1.28-1.61 2.25-2.26l-1.19 3.15zm-2.24-1.49l-4.21 7.1c-.6.19-60.43 11.48-60.43 11.48-.99.19-2.07.28-3.28.29-2.75-.03-6.74-.44-10.27-2.28l-22.15-12.28c-4.12-2.38-7.93-5.11-11.37-8.16l-61.71-61.66c-1.18-1.24-3.11-1.96-5.03-1.91-1.93.04-3.9.79-5.45 2.11l-22.04 18.8-5.76 4.66 12.22-16.72 8.8-8.66 22.08-22.31c1.11-1.12 2.59-1.78 4.04-1.79 1.39-.03 2.79.64 3.72 1.76l58.92 70.33c3.05 3.31 6.65 6.3 10.78 8.95 7.65 4.64 15.29 9.28 23.02 13.97 2.86 1.63 6.56 2.56 10.71 2.67 1.32.02 2.47-.07 3.53-.26l58.4-10.67-.4 1.06c-1.81.87-3.22 2.06-4.12 3.52zm-5.14 8.68l-4.08 6.88c-1.54 2.37-4.72 5.09-8.99 5.58l-.1.01c-4.39.36-56.86 11.14-56.86 11.14-.98.2-2.06.31-3.3.33-2.77.02-6.81-.31-10.37-1.97l-21.4-10.69c-4.31-2.23-8.43-4.72-12.31-7.45l-64.47-53.17c-1.21-1.03-3.06-1.64-4.99-1.64-.11 0-.21 0-.32.01-2.08.07-4.13.74-5.83 1.94l-22.28 15.75-7.26 4.68 13.08-17.9 9.62-7.81 22.07-18.82c1.25-1.07 2.9-1.7 4.52-1.74 1.5-.04 3.07.53 4.05 1.55l61.77 61.72c3.45 3.06 7.33 5.84 11.62 8.33l22.18 12.28c2.94 1.53 6.7 2.36 10.87 2.41 1.32 0 2.49-.11 3.55-.31 0 0 59.08-11.13 59.25-11.16l-.04.06.02-.01zm-270.67 18.63l-.03.01h-.01c-1.43.41-2.88.92-4.32 1.53l4.38-5.01 2.19-2.5 4.11 1.7-2.57 3.33-.02.02-3.73.92zm2.51.66l-2.66 3.44-.05.05c-1.48 1.9-4.54 3.09-7.55 3.01-.39-.01-.8-.06-1.24-.13l2.64-3.22c2.12-1.08 4.37-1.95 6.75-2.63l2.11-.52zm.59-7.61c2.18-2.33 4.35-4.66 6.54-6.99 1.93-1.21 3.93-2.28 5.98-3.19l1.26-.52-6.44 8.06-3.33 4.3-4.01-1.66zm8.4-1.9l7.85-9.83s8.98-3.71 9.02-3.73l-10.42 14.27-.57.77c-1.37 1.9-4.33 3.06-7.21 2.84-.57-.04-1.17-.15-1.77-.32l3.1-4zM145.05 185l-6.56 2.71.03-.04-.07.03 14.13-17.13 7.88-4.63-13.17 18.04c-.28.13-.55.25-.83.38-.45.21-.91.43-1.41.64zm17.42-21.81l-1.1.71-6.42 3.79 7.35-8.91 6.01-7.49 6.5-5-12.34 16.9zm.96.89c3.37-2.17 6.75-4.35 10.12-6.53l22.38-15.82c1.41-.99 3.23-1.59 5.01-1.64 1.71-.05 3.34.43 4.42 1.35l64.57 53.23c3.88 2.73 8.05 5.26 12.5 7.55l21.32 10.65c2.98 1.4 6.72 2.13 10.83 2.13h.21c1.32-.03 2.49-.15 3.52-.36 0 0 52.39-10.77 56.72-11.12l.1-.01c2.65-.32 5.17-1.41 7.23-3.1l-9.61 10.57c-2.76 2.81-6.46 4.61-10.23 4.95-4.28.24-8.77.87-13.82 1.94l-41.18 9.25c-.99.21-2.08.34-3.31.39-3.99.11-7.66-.48-10.66-1.73l-20.36-9.04-13.37-6.58-67.22-44.83c-1.38-.95-3.38-1.45-5.57-1.4-2.2.07-4.39.65-6.14 1.65l-22.63 12.95c-2.52 1.42-5.34 2.84-8.54 4.32l13.71-18.77zm34.92-50.02l-5.65 7.74-4.21 4.05 9.86-11.79zm-16.4 19.86l6.36-6.11-10.68 14.62-5.95 4.66-.02-.01 10.29-13.16zm-8.08 8.23l-6.53 8.29-2.61 2s7.51-8.55 9.14-10.29zm-19.1 22.16l5.62-6.7c.28-.24 3.55-2.96 3.55-2.96l-2.72 3.39-9.56 11.59-3.37 1.99 6.48-7.31zm-9.89 11.12c.31-.22.61-.44.92-.66.72-.52 1.47-1.06 2.3-1.57.4-.24.81-.47 1.21-.71l-13.37 16.26-.03.01-.02.02-3.48 1.44c-.82.36-1.66.78-2.52 1.24l14.99-16.03zm-15.62 14.66l2.85-2.9-5.94 6.35s-.96.63-1.41.93c.58-.6 4.5-4.38 4.5-4.38zm-11.18 11.77l.26.11-8.15 9.32-.03.03c-1.76.91-3.44 1.99-5.02 3.2l-.39-.14c.1-.08 13.33-12.52 13.33-12.52zm-10.27 12.33l-.79.96-.01.01c-.07-.02-.41-.13-.41-.13.39-.28.79-.56 1.21-.84zm-8.17 9.95c-1.49 1.76-4.27 2.96-7.22 3.16l12.91-11.34.02-.02.02-.02.78.27-6.51 7.95zm4.02-8.82l.34.12L93.1 225l5-5.22c1.9-1.43 3.77-2.93 5.56-4.46zm-4.15 1.14l-2.33 2.42-.03.03c-.24.18-.47.36-.7.54-.36.28-.71.56-1.14.86l-3.76 2.63 7.96-6.48zm-7.22 7.52l-2.75 3.14c-.26-.04-1.31-.3-1.31-.3l4.06-2.84zm-10.24 7.15l4.85-3.4 1.7.47-1.64 1.89c-3.09 2.8-12.31 8.14-12.31 8.14l1.25-1.35 6.15-5.75zm-7.35 5.13l-2.62 2.83a14 14 0 0 1-1.19-.16l3.81-2.67zm-5.96 4.18l.74-.53s1.38.27 1.56.29l-.32.35-8.41 4.99a96.33 96.33 0 0 1 6.43-5.1zm-10.92 9.25l9.87-5.86v.01h.01l-3.17 3.4c-1.79 1.8-4.59 3.06-7.8 3.54l1.09-1.09zm-10.73 9l-7.16 3.53.56-.51c4.81-4.76 12.94-9.43 12.94-9.43l-6.34 6.41zm27.28-15.13c-3.66 2.84-7.68 5.38-12.02 7.61-3.9 1.92-7.81 3.85-11.71 5.78l4.71-4.77c4.15-.29 7.85-1.79 10.15-4.1l6.12-6.58 2.07-1.23c2.85-.12 5.51-.93 7.56-2.27l-6.88 5.56zm2.02-4.88s5.55-3.38 6.76-4.21l-1.05 1.2c-1.3 1.41-3.35 2.47-5.71 3.01zm672.98 94.11c-2.2 2.93-6.58 4.81-10.97 4.7l-13.33-.53c-5.09-.37-10.07-1.53-14.36-3.31l-138.66-61.39-.09-.04c-4.7-1.85-9.88-2.85-15.05-2.91l-61.16.69c-4.47-.15-8.8-1.98-11-4.66l-.06-.08c-2.76-3.21-5.57-5.17-8.85-6.16l-12.6-2.15-31.6-3.97c-4.71-.75-8.22-2.07-10.41-3.9l-.09-.08c-2.57-2.1-5.96-3.81-10.66-5.36l-31.9-9.85c-2.14-.6-4.56-.83-7.41-.69-2.86.17-5.22.66-7.28 1.54l-13.81 5.91c-4.38 1.73-8.54 2.62-12.33 2.67h-.11c-4.13.03-8.5.61-13.36 1.76l-37.92 9.55c-2.06.48-4.41.66-7.2.57-2.79-.11-5.11-.47-7.17-1.14l-18.68-6.13s-42.22-10.82-46.66-12.88l-29.42-14.28-11.81-5.6-.1-.04c-2.08-.86-4.44-.97-6.04-.98-2.48.02-4.77.37-6.89 1.07l-23.31 7.68c-4.82 1.48-26.86 4.04-26.86 4.04l-.1.01c-5.07.65-9.88 2.51-13.62 5.29l-5.63 4.55c.1-.1.22-.19.31-.3 1.51-1.74 3.02-3.47 4.54-5.21l.2-.23.89-.68c.72-.55 1.46-1.12 2.2-1.74h.08c.22.02.44.03.67.03 3.63-.05 7.05-1.45 8.99-3.73l6.79-8.28c.75.17 1.44.26 2.08.29 3.49.11 6.91-1.26 8.72-3.57l3.61-4.66 7.92-1.95c4.93-1.28 9.77-2.93 14.48-4.94l22.87-10.21c1.74-.77 3.8-1.21 5.94-1.26 2.1-.03 3.84.3 5.17 1.01l7.89 4.69 31.69 19.14c4.15 2.43 64.4 25.92 64.4 25.92 3.24 1.18 7.06 1.68 11.36 1.48 1.33-.08 2.5-.23 3.65-.49l39.5-9.4c4.81-1.08 9.14-1.67 13.24-1.81h.11c4.1-.22 8.16-1.63 12.08-4.17l12.14-8.59c2.35-1.62 5.8-2.55 9.47-2.56 1.15.01 37.06 8.89 37.06 8.89 4.5 1.23 7.93 2.88 10.24 4.95 2.37 2.25 5.69 4.07 10.44 5.74l30.39 9.66c4.55 1.51 7.94 3.02 10.71 4.77 2.34 1.85 4.35 4.31 6.37 7.78 1.55 2.84 5.3 4.83 9.54 5.07.6.03 1.15.02 1.78-.04l62.53-6.59c1.04-.11 2.16-.14 3.42-.09 4.13.21 7.76.95 10.86 2.23l141.95 64.29.11.05c4.52 1.94 9.47 3.3 14.69 4.04l14.11 1.6c.41.04 1.04.09 1.65.07 1.07-.02 2.15-.21 3.18-.56l-3.52 5.46zm8.38-12.84l-3.57 5.48a9.436 9.436 0 0 1-4.48 1.25c-.52.01-1.03-.02-1.46-.07l-14.04-1.58c-5.05-.71-10-2.07-14.41-3.97l-141.95-64.3-.12-.05c-3.19-1.32-6.98-2.1-11.29-2.32-1.32-.05-2.51-.02-3.72.11l-62.51 6.59c-.46.04-.95.05-1.48.03-3.72-.21-7.11-1.97-8.42-4.38l-.05-.09c-1.42-2.43-3.47-5.56-6.67-8.1l-.11-.07c-2.88-1.82-6.27-3.34-11.09-4.94l-30.29-9.62c-4.49-1.57-7.74-3.35-9.92-5.41l-.09-.09c-2.5-2.22-5.92-3.88-10.86-5.24 0 0-36.08-8.91-37.34-8.92-4.02.02-7.67 1.01-10.35 2.86l-12.04 8.52c-3.6 2.35-7.63 3.75-11.33 3.95h-.1c-4.22.14-8.65.74-13.54 1.84l-39.5 9.39-.1.02c-.99.22-2.08.37-3.32.44-4.04.19-7.76-.3-10.85-1.42 0 0-60.04-23.41-64.18-25.84l-28.42-17.2-11.1-6.6-.09-.05c-1.49-.8-3.48-1.19-5.82-1.16-2.34.06-4.59.53-6.57 1.41l-22.86 10.21a100.05 100.05 0 0 1-14.26 4.85l-6.26 1.54 1.83-2.37c.83.27 1.66.44 2.47.5 3.37.26 6.77-1.09 8.46-3.43l10.31-14.11 1.96-2.68c4.02-1.8 7.54-3.55 10.82-5.38l22.55-12.9c1.57-.89 3.52-1.42 5.49-1.47 1.91-.05 3.59.36 4.79 1.19l67.38 44.92 13.27 6.53 20.56 9.13c3.17 1.31 6.93 1.92 11.21 1.81 1.32-.05 2.48-.19 3.53-.42l41.3-9.27c4.88-1.04 9.29-1.66 13.49-1.89l.1-.01c4.07-.38 7.99-2.28 11.04-5.35l10.74-11.81c2.15-2.27 6.05-3.63 9.95-3.47.55.03 37.5 7.4 37.5 7.4 4.51 1.02 8.01 2.66 10.16 4.78 2.24 2.43 39.14 22.73 39.14 22.73l.09.05c3.93 2.2 6.87 4.62 8.76 7.22 1.62 2.77 3.07 5.97 4.45 9.82.94 2.98 4.75 5.21 8.66 5.07.57-.02 1.13-.07 1.63-.17l64.07-12.61.11-.02c.99-.2 2.08-.31 3.32-.33 3.96-.06 7.66.6 10.66 1.87l145.49 67.33c4.5 1.99 9.39 3.53 14.61 4.61 0 0 15.23 2.77 15.48 2.8-.23.79-.82 2.86-.82 2.86zm1.16-4.06c-.28-.02-15.63-2.81-15.63-2.81-5.02-1.03-9.8-2.55-14.28-4.53l-145.41-67.29-.09-.04c-3.17-1.34-6.96-1.99-11.19-1.96-1.32.03-2.49.14-3.67.38l-63.95 12.58-.11.02c-.44.08-.91.13-1.43.15-3.34.13-6.57-1.73-7.37-4.28-1.42-3.94-2.86-7.11-4.53-9.98l-.07-.1c-2.01-2.77-5.01-5.25-9.17-7.58 0 0-36.78-20.23-38.87-22.49l-.1-.11c-2.37-2.32-5.91-3.99-10.91-5.14 0 0-37.05-7.37-37.64-7.41-3.8-.14-7.51.98-10.06 3.02.27-.34.53-.7.77-1.06l4.75-8.02c3.06-1.09 5.57-3.39 6.79-6.25l1.68-4.47c1.53-.66 3.18-1.02 4.78-1.03.54 0 1.02.04 1.56.11l38.12 5.85c4.48.8 8.05 2.43 10.08 4.6 2.1 2.61 4.77 5.16 8.47 8.09l29.29 22.39c3.27 2.66 5.68 5.98 6.77 9.37l2.42 11.48.13.7c.31 2.58 2.97 4.71 6.02 4.86.21.02.43.02.65.02.83 0 1.68-.11 2.5-.33l65.86-18.8c.96-.27 2.04-.46 3.21-.55 3.82-.26 7.5.27 10.42 1.52l148.91 70.31c4.47 2.03 9.27 3.75 14.36 5.13l10.11 2.55-3.17 11.1zm1.41-.04h-.02l3.07-10.71 1.52.38.04 3.41s-4.57 6.91-4.61 6.92zm1.91-.39l2.72-4.18c.16 2.1-.74 3.46-2.72 4.18zm3.19-71.5l.03-.29 10.06 15.38c-.33.63-1.31 3.38-1.31 3.38l-6.46-3.05-2.18-4.61-.14-10.81zm6.9 25.08l-3.72-7.86 5.26 2.48-1.54 5.38zm.31 3.74l2.92 6.17-4.22-1.62 1.3-4.55zm-7-13l1.1.52 5.05 10.66-1.68 5.88-2.41-1.04-1.95-7.41c-.04-2.87-.07-5.74-.11-8.61zm2.46 17.57l1.65.71-.76 2.67-.89-3.38zm2.45 14.61l-3.12-1 1.49-5.21 1.63 6.21zm-4.73-18.06l.32 1.23-.31-.13-.01-1.1zm.03 2.47l.7.3 1.72 6.56-2.23 7.29-.19-14.15zm.39 30.55l-.01-1.06.6.14-.59.92zm1.32-2.03l-.01.02-1.34-.34-.11-8.95.99-3.46 3.84 1.22 1.19 4.52-4.56 6.99zm5.09-.55c-.53.57-1.34.91-2.23.94-.45.03-.93.01-1.49-.08l3.64-5.58s.69 2.86.68 3.21c.02.53-.19 1.06-.6 1.51zm1.69-9.86l-1.25 1.92-.67-2.54 1.92.61v.01zm.71-1.09l-3-.96-2.41-9.2 1.35-4.7 5.35 2.05 2.96 6.28-4.25 6.53zm6.6-1.56c.3.67.42 1.23.36 1.75-.01.24-.11.46-.32.66-.35.33-.92.51-1.54.48-.69-.01-1.44-.14-2.32-.42l-1.48-.48 3.62-5.56 1.68 3.57zm-1.5-6.27l-2.03-4.29 3.86 1.48h.01l-1.84 2.81zm2.54-3.88l-5.34-2.05-4.16-8.77 1.89-6.62 5.51 2.54 6.06 9.26c-.65.74-3.96 5.64-3.96 5.64zm7.74.12l.04.08c.29.45.62 1.04.67 1.67.03.15 0 .27-.1.38-.18.19-.6.33-1.16.24-.79-.08-1.58-.34-2.2-.58l-3.74-1.44s3.03-4.49 3.45-4.99l3.04 4.64zm-2.88-6.78l-.01-.02-4.74-7.24 8.64 3.85a31.739 31.739 0 0 0-3.89 3.41zm5.07-4.26l-.03-.01-11.07-4.93-4.48-6.84c1.47-2.59 3.72-4.88 6.56-6.67l13.07 16.11s-3.15 1.73-4.05 2.34zm6.84 1.09l.07.09c.44.59.98 1.31.92 1.75-.01.01-.08.04-.19.04-.86 0-1.78-.37-2.81-.82l-3.45-1.54c.7-.46 3.48-1.97 3.48-1.97l1.98 2.45zm-1.6-4.04l-.02.01-12.2-15.07 21.06 10.66-8.84 4.4zm11.15-5.55l-.87.44-.76-.36-21.88-11.08 8.6-4.77s14.79 15.63 14.91 15.77zm131.1-41.29c.06.08.12.16.19.24.19.25.38.49.5.73l5.51 12.45-2.98-.17c-3.97-.31-7.45-3.02-7.76-6l-.91-7.94c1.87.2 3.7.43 5.45.69zm-1.11-1.4c-1.39-.19-2.87-.37-4.48-.54l-.34-2.95c1.88.89 3.52 2.07 4.82 3.49zm-4.76 8.72c.38 3.64 4.33 6.79 8.97 7.15l3.66.21 2.55 5.77a32.395 32.395 0 0 0-9.73-5.04l-37.96-10.99-.1-.03c-5.07-1.3-10.25-1.94-15.41-1.88l-45.1 1.25-.1.01c-5.25.3-9.88 1.21-13.78 2.71l-32.9 17.45-14.76-15.56 35.62-21.13c3.67-1.67 8.24-2.69 13.28-2.97l46.74-1.08c5.04-.04 10.17.46 15.29 1.5l26.62 6.06-.03.25c-.24 1.43.2 2.94 1.22 4.24 1.43 1.81 3.78 3 6.39 3.19 0 0 8.27.7 8.59.73l.94 8.16zm-1.08-9.4c-.25-.03-8.42-.71-8.42-.71-2.14-.16-4.13-1.16-5.34-2.68-.82-1.04-1.17-2.22-.99-3.29l.03-.18 12.63 2.88c.52.13 1.7.6 1.7.6l.39 3.38zm-.55-4.78c-.38-.15-.78-.3-1.26-.42l-12.77-2.91.71-5.98 12.45 1.74.87 7.57zm-9.71-21.87c4.06.72 7.41 3.56 7.98 6.79l.72 6.23h-.01l-12.15-1.68 1.39-11.7 2.07.36zm-3.2-2.14l-16.31-2.49v-.01h-.01l3.47-11.79 14.34 1.73-1.49 12.56zm1.69-14.3l-.06.5h-.01l-14.13-1.71 1.71-5.8 5.9.73c1.85.19 3.64 1 4.89 2.2 1.23 1.18 1.85 2.65 1.7 4.08z"/><path class="st1" d="M1188.5 316.53c-5.02-1.21-9.76-2.84-14.14-4.86l-9.06-4.31c-1.99-.88-4.32-1.4-7.14-1.6-2.84-.18-5.25.04-7.46.69l-25.74 7.51-14.84 4.16-22.07 5.93c-2.04.49-4.37.68-7.13.58-2.78-.13-5.07-.52-7.07-1.24l-19.33-6.87-.1-.03a47.203 47.203 0 0 0-15.33-2.16l-2.91.13c-5.25.14-10.46-.07-15.57-.63l-41.63-5.09-.11-.02c-5.01-.77-9.86-2.27-14.07-4.37l-30.67-16.11-.11-.06c-4.51-2.09-9.58-3.15-14.78-3.06l-40.09 1.74c-5.23.29-9.77.79-13.87 1.53l-.1.02c-4.2.92-8.47 2.21-13.13 3.97l-31.71 12.31c-4.72 1.92-9.21 4.1-13.41 6.52l-73.92 43.67c-4.17 2.24-8.94 3.78-13.86 4.45 0 0-14.66 1.57-15.94 1.53-4.21-.2-7.87-.91-10.93-2.15-43.89-18.47-87.78-36.94-131.75-55.45a85.609 85.609 0 0 0-14.77-4.35l-59.2-11.03c-4.84-1.07-9.3-2.89-12.96-5.31-2.58-1.66-6.05-2.58-9.76-2.58h-.01c-1.16.01-2.25.14-3.33.4l-50.7 10.88-.1.02c-.98.2-2.02.32-3.07.37-2.17.06-5.29-.01-7.23-1.36l-.09-.07c-3.46-2.44-38.28-18.05-38.28-18.05l-.09-.04c-4.67-1.83-9.84-2.73-15.06-2.58l-19.77 1.08c-2.16.11-4.47.15-7.08.13-1.95-.03-4.04-.08-6.16-.28-1.01-.09-2-.06-2.76-.03-3.57.18-7.03.73-10.37 1.65l-34.5 9.77c-2.04.54-4.42.85-7.27.96-2.86.08-5.27-.08-7.43-.52l-17.08-3.53-.11-.02c-5.16-.94-10.4-1.32-15.68-1.14 0 0-21.77 1.07-23.09 1.02-4.4-.22-8.15-.75-11.55-1.64l-31.79-8.76-13.02-3.43-.11-.02c-3.53-.75-7.09-.78-10.12-.7-1.27.04-2.41.13-3.58.27l-24.82 2.93c-1.04.12-2.19.18-3.52.21-4.4.05-8.18-.25-11.66-.95l-13.62-2.9c-1.02-.2-2.1-.3-3.31-.3h-.23c-2.87.07-7.01.61-10.43 2.81l-14.13 9.49c-3.98 2.53-8.38 4.6-13.03 6.16l-30.31 9.49v1.32l.59-.19.11-.06 30-9.39c4.79-1.61 9.29-3.73 13.44-6.37l13.95-9.38.09-.05c2.48-1.59 5.93-2.52 9.71-2.6 1.18-.01 2.26.08 3.31.29l13.61 2.91c3.51.7 7.4 1.02 11.9.96 1.36-.03 2.55-.1 3.74-.23l24.83-2.93c1.02-.12 2.12-.2 3.37-.25 2.76-.07 6.36-.05 9.82.68l11.4 3 33.36 9.17.11.03c3.43.9 7.28 1.44 11.78 1.67 1.35.06 23.31-1.02 23.31-1.02 5.08-.18 10.21.2 15.32 1.13l17.19 3.56c2.23.45 4.67.61 7.69.53 3.01-.11 5.43-.43 7.59-1l34.6-9.8c3.15-.87 6.5-1.4 9.96-1.58.71-.03 1.65-.05 2.65.04 2.11.2 4.22.25 6.19.28 2.63.02 4.97-.02 7.26-.14l19.76-1.08c4.85-.14 9.94.74 14.42 2.51 0 0 35.44 16.08 38.1 17.96 2.28 1.56 5.39 1.7 8.14 1.64 1.13-.05 2.23-.18 3.27-.39l50.96-10.93c.9-.22 1.89-.33 2.93-.34h.03c3.38 0 6.65.86 9.02 2.39 3.75 2.46 8.37 4.35 13.37 5.47l59.32 11.05c4.91.98 9.76 2.42 14.49 4.28l131.64 55.4.11.05c3.15 1.27 6.97 2.02 11.35 2.23 1.34.05 16.26-1.54 16.26-1.54 5.02-.69 9.96-2.28 14.37-4.65l73.94-43.68c4.09-2.35 8.51-4.5 13.23-6.42l31.7-12.31c4.44-1.68 8.76-2.98 12.91-3.89 4.02-.73 8.5-1.22 13.76-1.51l40.07-1.74c4.8-.1 9.78.95 14.08 2.95l30.76 16.16c4.34 2.16 9.2 3.66 14.45 4.48l41.85 5.07c5.09.56 10.38.77 15.69.63l3.02-.13c4.92-.11 10.01.61 14.81 2.12l19.31 6.86.1.04c2.06.73 4.48 1.15 7.41 1.29 2.89.11 5.36-.09 7.54-.62l22.18-5.96 14.86-4.16 25.64-7.49.11-.03c1.93-.57 4.24-.77 6.87-.61 2.61.18 4.85.68 6.72 1.51l9.04 4.3c4.4 2.03 9.23 3.68 14.35 4.92l37.69 8.2v-1.27l-37.3-8.11-.06-.01z"/><path class="st2" d="M763.09 300.39c.01 1.28 1.08 2.32 2.37 2.32h.03c1.3-.01 2.36-1.07 2.35-2.56-.01-1.28-1.08-2.32-2.4-2.32-1.31.01-2.36 1.07-2.35 2.56"/><path class="st3" d="M228.36 71.62c.09-.29.29-.48.55-.64.28-.11.6-.18.89-.09.33.1.61.34.75.61.16.3.2.67.09.99-.09.26-.19.47-.48.64l-.17.09c-.77.28-1.29-.11-1.55-.61-.15-.3-.19-.66-.08-.99m.32 2.72c.61.19 1.26.13 1.82-.16.76-.38 1.17-.87 1.36-1.46.19-.6.13-1.25-.14-1.76a2.36 2.36 0 0 0-2.12-1.29c-.39 0-.78.1-1.27.35-.56.28-1 .78-1.19 1.38a2.332 2.332 0 0 0 1.54 2.94"/><path class="st4" d="M1007.2 245.93h.02l.3-.01a2.37 2.37 0 0 0 2.28-2.43c-.05-1.26-1.09-2.25-2.4-2.25-.03 0-.27.01-.29.01-1.3.05-2.33 1.13-2.28 2.43.05 1.27 1.1 2.25 2.37 2.25"/><path class="st2" d="M431.46 113.9c1.31 0 2.38-1.04 2.38-2.55 0-1.29-1.06-2.34-2.37-2.34s-2.38 1.04-2.38 2.55c0 1.29 1.06 2.34 2.37 2.34"/><path class="st5" d="M878.75 100c.09-.29.29-.48.55-.64.28-.11.6-.18.89-.09.33.1.61.33.75.61.17.3.2.67.09.99-.08.26-.19.47-.48.64l-.17.09c-.77.28-1.29-.11-1.54-.61-.16-.3-.19-.66-.09-.99m.32 2.71a2.4 2.4 0 0 0 1.82-.16c.76-.38 1.17-.87 1.36-1.46.19-.6.13-1.25-.14-1.76-.4-.8-1.21-1.29-2.12-1.29-.39 0-.78.1-1.27.35-.56.28-1 .78-1.19 1.37-.19.6-.13 1.25.15 1.78.29.57.79.98 1.39 1.17m-34.23-2.32c.09-.29.29-.48.55-.64.28-.11.6-.18.89-.09.33.1.61.33.75.61.17.3.2.66.09.99-.08.26-.18.47-.48.64l-.17.09c-.77.28-1.29-.11-1.54-.61-.16-.31-.19-.67-.09-.99m.32 2.71a2.4 2.4 0 0 0 1.82-.16c.76-.38 1.17-.87 1.36-1.46.19-.6.13-1.25-.14-1.76-.4-.8-1.21-1.29-2.12-1.29-.39 0-.78.1-1.27.35-.56.28-1 .78-1.19 1.37-.19.6-.13 1.25.15 1.78.29.57.79.98 1.39 1.17m-72.85 173.16c.22.6.69 1.1 1.28 1.36s1.27.26 1.77.05c1.23-.44 1.87-1.77 1.36-3.18-.33-.93-1.23-1.55-2.24-1.55-.21 0-.61.07-.81.14-1.24.43-1.88 1.77-1.36 3.18"/><circle class="st5" cx="56.25" cy="197.75" r="5.75"/><circle class="st5" cx="230.5" cy="192" r="5.75"/><circle class="st5" cx="255" cy="118" r="2.75"/><circle class="st2" cx="461.06" cy="195.31" r="2.44"/><circle class="st2" cx="557.19" cy="208.56" r="2.44"/><circle class="st2" cx="426.56" cy="180.44" r="2.44"/><circle class="st5" cx="354.56" cy="172.31" r="2.44"/><circle class="st5" cx="421.81" cy="148.81" r="2.44"/><circle class="st5" cx="261.69" cy="232.31" r="2.44"/><circle class="st5" cx="43.69" cy="303.31" r="2.44"/><circle class="st5" cx="506.44" cy="234.19" r="4.44"/><circle class="st5" cx="504.5" cy="253" r="2.5"/><circle class="st5" cx="487.25" cy="288.88" r="2.5"/><circle class="st5" cx="601.63" cy="338.88" r="2.5"/><circle class="st5" cx="636.75" cy="370" r="2.5"/><circle class="st5" cx="695.75" cy="277" r="2.5"/><circle class="st5" cx="596.38" cy="166.63" r="2.5"/><circle class="st2" cx="610" cy="200.25" r="2.5"/><circle class="st3" cx="597.38" cy="212.38" r="2.5"/><circle class="st3" cx="657" cy="276" r="2.5"/><circle class="st3" cx="636.38" cy="318.63" r="2.5"/><circle class="st3" cx="676.5" cy="369.25" r="2.5"/><circle class="st5" cx="755" cy="366.63" r="2.5"/><circle class="st5" cx="880.75" cy="331.38" r="2.5"/><circle class="st5" cx="984.63" cy="310.13" r="2.5"/><circle class="st5" cx="973.5" cy="272.88" r="2.5"/><circle class="st5" cx="1046.4" cy="275.25" r="2.5"/><circle class="st3" cx="1067.4" cy="206.44" r="2.69"/><circle class="st3" cx="1027.2" cy="259.44" r="2.69"/><circle class="st5" cx="1032.4" cy="190.69" r="2.69"/><circle class="st5" cx="936.56" cy="178.56" r="2.69"/><circle class="st6" cx="222.81" cy="84.06" r="4.56"/><circle class="st6" cx="158.81" cy="194.81" r="4.56"/><circle class="st6" cx="455.31" cy="299.56" r="4.56"/><circle class="st2" cx="749.19" cy="221.81" r="2.56"/><circle class="st3" cx="698.81" cy="208.06" r="2.56"/><circle class="st5" cx="755.65" cy="227.73" r="2.56"/><circle class="st2" cx="819.02" cy="258.1" r="2.56"/><circle class="st2" cx="800.1" cy="274.35" r="2.56"/><circle class="st2" cx="758.9" cy="340.48" r="2.56"/><circle class="st2" cx="736.27" cy="325.85" r="2.56"/><circle class="st4" cx="722.56" cy="322.85" r="2.56"/><circle class="st4" cx="769.6" cy="334.19" r="2.56"/><circle class="st2" cx="969.5" cy="262.94" r="2.69"/><circle class="st2" cx="969.69" cy="287.06" r="2.69"/><circle class="st2" cx="937.94" cy="291.13" r="2.69"/><circle class="st2" cx="889.69" cy="266.13" r="2.69"/><circle class="st3" cx="843.88" cy="271.94" r="5.5"/><circle class="st3" cx="900.41" cy="329.41" r="2.59"/><circle class="st5" cx="1002.9" cy="331.66" r="2.59"/><circle class="st5" cx="1117.4" cy="337.69" r="3.44"/><circle class="st6" cx="18.75" cy="247.25" r="4.5"/><circle class="st3" cx="10.31" cy="262.69" r="2.44"/><circle class="st2" cx="144.38" cy="267.25" r="2.88"/><circle class="st2" cx="205.25" cy="310.75" r="2.88"/><circle class="st2" cx="271.63" cy="254.63" r="2.88"/><circle class="st2" cx="333.13" cy="244.38" r="2.88"/><circle class="st2" cx="351.13" cy="206.88" r="2.88"/><circle class="st2" cx="268.94" cy="193.81" r="2.31"/><circle class="st2" cx="182.81" cy="165.69" r="2.31"/><circle class="st2" cx="264.44" cy="130.44" r="2.31"/><circle class="st2" cx="298.69" cy="105.44" r="2.31"/><circle class="st4" cx="278.38" cy="72" r="2.63"/><circle class="st4" cx="325.13" cy="184.5" r="2.63"/><circle class="st4" cx="365.13" cy="158.75" r="2.63"/><circle class="st4" cx="390.38" cy="216.25" r="2.63"/><circle class="st2" cx="412.31" cy="318.81" r="2.69"/><circle class="st5" cx="329.81" cy="271.19" r="2.69"/><circle class="st5" cx="267.69" cy="281.69" r="2.69"/><circle class="st2" cx="512.81" cy="260.56" r="2.56"/><circle class="st2" cx="474.31" cy="244.94" r="2.56"/><circle class="st4" cx="489.69" cy="216.69" r="2.31"/><circle class="st3" cx="536" cy="270.5" r="2.69"/><circle class="st2" cx="590.38" cy="262.88" r="3"/><circle class="st2" cx="535.5" cy="329.75" r="2.63"/><circle class="st7" cx="1029.7" cy="288.42" r="4.08"/><circle class="st4" cx="989.96" cy="331.46" r="2.29"/><circle class="st6" cx="1166.7" cy="319.83" r="4.33"/><circle class="st7" cx="1141.3" cy="273.83" r="5.5"/><circle class="st7" cx="1053.1" cy="192.42" r="4.58"/><circle class="st6" cx="1035.7" cy="202.33" r="3.5"/><circle class="st5" cx="923.17" cy="267.58" r="6"/><circle class="st6" cx="932.58" cy="306.75" r="4.42"/><circle class="st6" cx="860.79" cy="336.88" r="4.63"/><circle class="st7" cx="180.69" cy="139.81" r="3.44"/><circle class="st6" cx="218.94" cy="152.56" r="3.69"/><circle class="st6" cx="176.06" cy="275.94" r="3.69"/><circle class="st6" cx="280.19" cy="278.31" r="3.69"/><circle class="st6" cx="321.69" cy="257.69" r="3.69"/><circle class="st6" cx="325.56" cy="305.31" r="3.69"/><circle class="st6" cx="406.31" cy="198.94" r="3.69"/><circle class="st6" cx="469.94" cy="173.69" r="3.69"/><circle class="st6" cx="422.56" cy="127.69" r="3.69"/><circle class="st6" cx="569.31" cy="227.31" r="3.69"/><circle class="st6" cx="639.94" cy="302.94" r="3.69"/><circle class="st4" cx="703.44" cy="297.1" r="3.69"/><circle class="st6" cx="679.63" cy="337.63" r="6.38"/><circle class="st6" cx="705.69" cy="380.19" r="3.69"/><circle class="st6" cx="706.19" cy="247.06" r="3.69"/><circle class="st6" cx="776.94" cy="262.81" r="3.69"/><circle class="st6" cx="845.19" cy="183.44" r="3.69"/><circle class="st6" cx="878.94" cy="245.44" r="3.69"/><circle class="st6" cx="905.06" cy="179.44" r="3.69"/><circle class="st6" cx="1054.2" cy="257.31" r="3.69"/><circle class="st2" cx="1044.5" cy="315.08" r="2.25"/><circle class="st2" cx="982.42" cy="350.83" r="2.25"/><circle class="st2" cx="906.17" cy="307.5" r="2.25"/><circle class="st2" cx="688.58" cy="307.67" r="2.25"/><circle class="st2" cx="575.5" cy="310.5" r="2.25"/><circle class="st2" cx="692.25" cy="384.17" r="2.25"/><circle class="st4" cx="178.79" cy="153.21" r="2.38"/><circle class="st5" cx="205.96" cy="109.71" r="2.13"/><path class="st6" d="M42.66 229.16c-2.35 0-4.25 1.9-4.25 4.25s1.9 4.25 4.25 4.25 4.25-1.9 4.25-4.25-1.91-4.25-4.25-4.25zm0 7.37c-1.73 0-3.13-1.4-3.13-3.13s1.4-3.13 3.13-3.13 3.13 1.4 3.13 3.13-1.41 3.13-3.13 3.13z"/><path class="st2" d="M94.14 184.8a6.5 6.5 0 1 0 0 13 6.5 6.5 0 0 0 0-13zm0 9.47a2.97 2.97 0 1 1 0-5.94 2.97 2.97 0 0 1 0 5.94zM269.83 51.8a6.5 6.5 0 1 0 0 13 6.5 6.5 0 0 0 0-13zm0 9.47a2.97 2.97 0 1 1 0-5.94 2.97 2.97 0 0 1 0 5.94z"/><path class="st6" d="M324.47 134.46a6.5 6.5 0 1 0 0 13 6.5 6.5 0 0 0 0-13zm0 9.47a2.97 2.97 0 1 1 0-5.94 2.97 2.97 0 0 1 0 5.94z"/><path class="st2" d="M96.39 261.17a6.5 6.5 0 1 0 0 13 6.5 6.5 0 0 0 0-13zm0 9.47a2.97 2.97 0 1 1 0-5.94 2.97 2.97 0 0 1 0 5.94z"/><path class="st5" d="M147.64 234.3a6.5 6.5 0 1 0 0 13 6.5 6.5 0 0 0 0-13zm0 9.47a2.97 2.97 0 1 1 0-5.94 2.97 2.97 0 0 1 0 5.94z"/><path class="st6" d="M387.64 278.3a6.5 6.5 0 1 0 0 13 6.5 6.5 0 0 0 0-13zm0 9.47a2.97 2.97 0 1 1 0-5.94 2.97 2.97 0 0 1 0 5.94z"/><path class="st5" d="M508.38 187.42a3.24 3.24 0 1 0 0 6.48 3.24 3.24 0 1 0 0-6.48zm0 4.72c-.82 0-1.48-.66-1.48-1.48s.66-1.48 1.48-1.48 1.48.66 1.48 1.48-.66 1.48-1.48 1.48z"/><path class="st2" d="M493.38 297.55a3.24 3.24 0 1 0 0 6.48 3.24 3.24 0 1 0 0-6.48zm0 4.72c-.82 0-1.48-.66-1.48-1.48s.66-1.48 1.48-1.48 1.48.66 1.48 1.48-.66 1.48-1.48 1.48z"/><path class="st5" d="M508.26 125.17c-1.31 0-2.37 1.06-2.37 2.37s1.06 2.37 2.37 2.37 2.37-1.06 2.37-2.37-1.06-2.37-2.37-2.37zm0 3.45c-.6 0-1.08-.48-1.08-1.08s.48-1.08 1.08-1.08 1.08.48 1.08 1.08-.49 1.08-1.08 1.08zm215.86-2.45a4.1 4.1 0 1 0-.002 8.198 4.1 4.1 0 0 0 .002-8.198zm0 5.98c-1.03 0-1.87-.84-1.87-1.87s.84-1.87 1.87-1.87 1.87.84 1.87 1.87-.84 1.87-1.87 1.87z"/><path class="st2" d="M861.13 180.42c-1.51 0-2.74 1.23-2.74 2.74s1.23 2.74 2.74 2.74 2.74-1.23 2.74-2.74-1.22-2.74-2.74-2.74zm0 4a1.25 1.25 0 1 1 0-2.5 1.25 1.25 0 0 1 0 2.5z"/><path class="st4" d="M780.33 165.75c-3.9 0-7.06 3.16-7.06 7.06s3.16 7.06 7.06 7.06 7.06-3.16 7.06-7.06-3.16-7.06-7.06-7.06zm0 10.29c-1.78 0-3.23-1.44-3.23-3.23s1.44-3.23 3.23-3.23 3.23 1.44 3.23 3.23-1.45 3.23-3.23 3.23z"/><path class="st2" d="M875.88 119.92c-1.51 0-2.74 1.23-2.74 2.74s1.23 2.74 2.74 2.74 2.74-1.23 2.74-2.74-1.22-2.74-2.74-2.74zm0 4a1.25 1.25 0 1 1 0-2.5 1.25 1.25 0 0 1 0 2.5z"/><path class="st6" d="M856.69 138.28a4.31 4.31 0 1 0 0 8.62 4.31 4.31 0 0 0 0-8.62zm0 6.28c-1.09 0-1.97-.88-1.97-1.97s.88-1.97 1.97-1.97 1.97.88 1.97 1.97-.88 1.97-1.97 1.97z"/><path class="st3" d="M813.26 205.67c-1.51 0-2.74 1.23-2.74 2.74s1.23 2.74 2.74 2.74 2.74-1.23 2.74-2.74-1.23-2.74-2.74-2.74zm0 4a1.25 1.25 0 1 1 0-2.5 1.25 1.25 0 0 1 0 2.5zm.44 18.75c-3.48 0-6.3 2.82-6.3 6.3s2.82 6.3 6.3 6.3 6.3-2.82 6.3-6.3-2.82-6.3-6.3-6.3zm0 9.19a2.88 2.88 0 1 1 .001-5.761 2.88 2.88 0 0 1-.001 5.761z"/><path class="st5" d="M783.95 299.67c-3.48 0-6.3 2.82-6.3 6.3s2.82 6.3 6.3 6.3 6.3-2.82 6.3-6.3-2.82-6.3-6.3-6.3zm0 9.19a2.88 2.88 0 1 1 .001-5.761 2.88 2.88 0 0 1-.001 5.761zm-42.25-50.31c-3.48 0-6.3 2.82-6.3 6.3s2.82 6.3 6.3 6.3 6.3-2.82 6.3-6.3-2.82-6.3-6.3-6.3zm0 9.18a2.88 2.88 0 1 1 .001-5.761 2.88 2.88 0 0 1-.001 5.761zm156.68-63.43c-1.51 0-2.74 1.23-2.74 2.74s1.23 2.74 2.74 2.74 2.74-1.23 2.74-2.74-1.22-2.74-2.74-2.74zm0 3.99a1.25 1.25 0 1 1 0-2.5 1.25 1.25 0 0 1 0 2.5z"/><path class="st4" d="M934.76 190.05c-1.51 0-2.74 1.23-2.74 2.74s1.23 2.74 2.74 2.74 2.74-1.23 2.74-2.74-1.23-2.74-2.74-2.74zm0 3.99a1.25 1.25 0 1 1 0-2.5 1.25 1.25 0 0 1 0 2.5z"/><path class="st2" d="M979.63 237.8c-1.51 0-2.74 1.23-2.74 2.74s1.23 2.74 2.74 2.74 2.74-1.23 2.74-2.74-1.22-2.74-2.74-2.74zm0 3.99a1.25 1.25 0 1 1 0-2.5 1.25 1.25 0 0 1 0 2.5zm79.47-28.37c-1.51 0-2.74 1.23-2.74 2.74s1.23 2.74 2.74 2.74 2.74-1.23 2.74-2.74-1.22-2.74-2.74-2.74zm0 4a1.25 1.25 0 1 1 0-2.5 1.25 1.25 0 0 1 0 2.5zm-.8 98.25c-1.51 0-2.74 1.23-2.74 2.74s1.23 2.74 2.74 2.74 2.74-1.23 2.74-2.74-1.23-2.74-2.74-2.74zm0 4a1.25 1.25 0 1 1 0-2.5 1.25 1.25 0 0 1 0 2.5zm141.9-41.5c-3.47 0-6.29 2.82-6.29 6.29s2.82 6.29 6.29 6.29 6.29-2.82 6.29-6.29-2.82-6.29-6.29-6.29zm0 9.16c-1.59 0-2.87-1.29-2.87-2.87s1.29-2.87 2.87-2.87 2.87 1.29 2.87 2.87-1.28 2.87-2.87 2.87zm9.7 31.84c-1.51 0-2.74 1.23-2.74 2.74s1.23 2.74 2.74 2.74 2.74-1.23 2.74-2.74-1.22-2.74-2.74-2.74zm0 4a1.25 1.25 0 1 1 0-2.5 1.25 1.25 0 0 1 0 2.5z"/><path class="st3" d="M1198.4 316.67c-1.51 0-2.74 1.23-2.74 2.74s1.23 2.74 2.74 2.74 2.74-1.23 2.74-2.74-1.22-2.74-2.74-2.74zm0 4a1.25 1.25 0 1 1 0-2.5 1.25 1.25 0 0 1 0 2.5z"/><path class="st7" d="M1128.1 199.42c-1.51 0-2.74 1.23-2.74 2.74s1.23 2.74 2.74 2.74 2.74-1.23 2.74-2.74-1.22-2.74-2.74-2.74zm0 4a1.25 1.25 0 1 1 0-2.5 1.25 1.25 0 0 1 0 2.5zm-908.21 86.5c-2.5 0-4.53 2.03-4.53 4.53s2.03 4.53 4.53 4.53 4.53-2.03 4.53-4.53-2.03-4.53-4.53-4.53zm0 7.72c-1.76 0-3.19-1.43-3.19-3.19s1.43-3.19 3.19-3.19 3.19 1.43 3.19 3.19-1.43 3.19-3.19 3.19z"/><path class="st2" d="M265.24 290.5a2.68 2.68 0 1 0 0 5.36 2.68 2.68 0 0 0 0-5.36zm0 4.56c-1.04 0-1.89-.84-1.89-1.89s.84-1.89 1.89-1.89 1.89.84 1.89 1.89-.85 1.89-1.89 1.89zM153.22 161.01a3.24 3.24 0 1 0 0 6.48 3.24 3.24 0 1 0 0-6.48zm0 4.72c-.82 0-1.48-.66-1.48-1.48s.66-1.48 1.48-1.48 1.48.66 1.48 1.48-.67 1.48-1.48 1.48zm-10.64 18.19a2.68 2.68 0 1 0 0 5.36 2.68 2.68 0 0 0 0-5.36zm0 4.56c-1.04 0-1.89-.84-1.89-1.89 0-1.04.84-1.89 1.89-1.89 1.04 0 1.89.84 1.89 1.89a1.895 1.895 0 0 1-1.89 1.89zm138.86 29.33c-1.89 0-3.42 1.53-3.42 3.42s1.53 3.42 3.42 3.42 3.42-1.53 3.42-3.42-1.53-3.42-3.42-3.42zm0 5.83c-1.33 0-2.41-1.08-2.41-2.41s1.08-2.41 2.41-2.41 2.41 1.08 2.41 2.41-1.08 2.41-2.41 2.41zm120.65-73.97c-1.47 0-2.66 1.19-2.66 2.66s1.19 2.66 2.66 2.66 2.66-1.19 2.66-2.66-1.19-2.66-2.66-2.66zm0 3.88c-.67 0-1.22-.54-1.22-1.22s.54-1.22 1.22-1.22 1.22.54 1.22 1.22-.55 1.22-1.22 1.22zm26-36c-1.47 0-2.66 1.19-2.66 2.66s1.19 2.66 2.66 2.66 2.66-1.19 2.66-2.66-1.19-2.66-2.66-2.66zm0 3.88c-.67 0-1.22-.54-1.22-1.22s.54-1.22 1.22-1.22 1.22.54 1.22 1.22-.55 1.22-1.22 1.22z"/><circle class="st7" cx="489.25" cy="131.63" r="4.5"/><circle class="st7" cx="489.25" cy="256.5" r="4.5"/><circle class="st7" cx="359.88" cy="252.25" r="4.5"/><circle class="st7" cx="679" cy="216" r="4.5"/><circle class="st6" cx="625.75" cy="171.25" r="4.63"/><circle class="st7" cx="767" cy="290.5" r="4.5"/><circle class="st6" cx="793.94" cy="142.44" r="4.69"/><circle class="st6" cx="747.94" cy="109.69" r="4.69"/><path class="st6" d="M1089 226.3c-3.13 0-5.66 2.54-5.66 5.66s2.54 5.66 5.66 5.66 5.66-2.54 5.66-5.66-2.53-5.66-5.66-5.66zm0 8.25a2.59 2.59 0 1 1 .001-5.181 2.59 2.59 0 0 1-.001 5.181zm-123.2 65.5c-3.13 0-5.66 2.54-5.66 5.66s2.54 5.66 5.66 5.66 5.66-2.54 5.66-5.66-2.53-5.66-5.66-5.66zm0 8.25a2.59 2.59 0 1 1 .001-5.181 2.59 2.59 0 0 1-.001 5.181zm201.1-82.13c-2.5 0-4.53 2.03-4.53 4.53s2.03 4.53 4.53 4.53 4.53-2.03 4.53-4.53-2.03-4.53-4.53-4.53zm0 7.72c-1.76 0-3.19-1.43-3.19-3.19s1.43-3.19 3.19-3.19 3.19 1.43 3.19 3.19-1.43 3.19-3.19 3.19z"/><circle class="st4" cx="131.92" cy="203.67" r="3"/><circle class="st7" cx="330.46" cy="166.88" r="4.54"/><circle class="st5" cx="478.75" cy="183.58" r="2.67"/><circle class="st2" cx="644.42" cy="252.42" r="2.5"/><circle class="st4" cx="936.53" cy="231.44" r="2.28"/><circle class="st5" cx="947.44" cy="234.88" r="2.28"/><circle class="st2" cx="981.13" cy="227.25" r="2.69"/><circle class="st2" cx="1014.1" cy="200.25" r="2.69"/><circle class="st2" cx="927.38" cy="192" r="2.69"/><circle class="st4" cx="872.41" cy="203.94" r="2.28"/><circle class="st4" cx="921.78" cy="177.19" r="2.28"/><circle class="st2" cx="906.75" cy="227.38" r="2.69"/><circle class="st2" cx="890.75" cy="186.63" r="2.69"/><circle class="st2" cx="791.31" cy="221.56" r="2.56"/><circle class="st2" cx="706.06" cy="149.69" r="2.56"/><circle class="st2" cx="773.19" cy="122.31" r="2.56"/><circle class="st2" cx="895.19" cy="150.31" r="2.56"/><circle class="st3" cx="243" cy="140.75" r="2.5"/><circle class="st3" cx="288" cy="125.38" r="2.5"/><circle class="st7" cx="376.38" cy="331.42" r="4.5"/><circle class="st7" cx="578.38" cy="346.08" r="4.5"/><path class="st2" d="M470.47 93.8a6.5 6.5 0 1 0 0 13 6.5 6.5 0 0 0 0-13zm0 9.47a2.97 2.97 0 1 1 0-5.94 2.97 2.97 0 0 1 0 5.94z"/></g></svg>